<?xml version="1.0" standalone="no"?>
<!DOCTYPE svg PUBLIC "-//W3C//DTD SVG 20010904//EN"
 "http://www.w3.org/TR/2001/REC-SVG-20010904/DTD/svg10.dtd">
<svg version="1.0" xmlns="http://www.w3.org/2000/svg"
 width="2500.000000pt" height="2500.000000pt" viewBox="0 0 2500.000000 2500.000000"
 preserveAspectRatio="xMidYMid meet">

<g transform="translate(0.000000,2500.000000) scale(0.100000,-0.100000)"
fill="#000000" stroke="none">
<path d="M16935 20943 c-30 -16 -150 -98 -171 -118 -16 -14 -100 -72 -229
-157 -60 -40 -115 -77 -121 -83 -17 -16 -199 -131 -304 -193 -312 -183 -606
-289 -765 -276 -143 12 -308 74 -454 171 -46 31 -105 64 -130 73 -25 10 -77
36 -116 59 -38 22 -77 41 -86 41 -9 0 -67 25 -128 55 -61 30 -119 55 -129 55
-9 0 19 -18 63 -39 81 -39 114 -61 144 -95 9 -10 44 -47 79 -83 35 -35 67 -75
72 -88 5 -12 36 -62 70 -110 78 -109 135 -229 166 -352 37 -148 30 -248 -32
-433 -39 -116 -150 -348 -244 -510 -70 -120 -298 -467 -456 -692 -62 -89 -72
-119 -49 -138 24 -20 53 -6 178 86 59 43 146 104 192 134 46 30 143 96 215
145 478 330 885 496 1113 455 138 -25 278 -81 407 -166 52 -34 111 -70 130
-79 19 -10 55 -33 80 -52 25 -19 59 -41 76 -48 17 -7 64 -43 103 -80 39 -37
75 -65 78 -61 4 4 -25 38 -64 76 -39 38 -75 80 -78 92 -4 13 -29 52 -55 88
-26 36 -57 85 -69 110 -11 25 -41 72 -66 105 -86 117 -175 359 -175 480 0 229
178 635 459 1048 25 37 70 104 98 150 55 85 97 146 173 251 25 34 56 83 70
109 25 47 25 47 5 66 -19 18 -22 19 -50 4z"/>
<path d="M12257 20654 c-1 -1 -38 -5 -82 -9 -201 -17 -286 -25 -310 -30 -11
-3 -51 -7 -90 -10 -38 -3 -86 -7 -105 -10 -19 -2 -57 -7 -85 -10 -27 -4 -61
-8 -75 -10 -43 -7 -103 -14 -160 -20 -83 -9 -118 -14 -187 -30 -13 -3 -33 -7
-45 -10 -13 -3 -36 -8 -53 -10 -16 -3 -38 -8 -47 -11 -9 -3 -26 -7 -37 -9 -12
-3 -31 -7 -43 -11 -13 -3 -34 -7 -48 -10 -14 -3 -33 -7 -42 -10 -9 -3 -27 -7
-40 -10 -36 -8 -61 -13 -88 -19 -14 -4 -36 -8 -50 -11 -14 -3 -59 -14 -100
-25 -41 -11 -82 -21 -90 -23 -68 -17 -150 -40 -200 -58 -14 -4 -36 -10 -50
-13 -14 -3 -45 -12 -70 -20 -25 -8 -88 -29 -140 -45 -52 -17 -106 -36 -120
-42 -14 -6 -35 -15 -47 -19 -44 -17 -78 -31 -95 -40 -10 -5 -22 -9 -27 -9 -5
0 -40 -14 -78 -31 -61 -27 -93 -41 -158 -69 -11 -4 -42 -18 -70 -30 -62 -27
-72 -31 -165 -65 -206 -76 -689 -350 -1110 -629 -296 -196 -507 -362 -805
-631 -55 -50 -154 -138 -220 -196 -217 -192 -404 -398 -757 -835 -403 -499
-581 -783 -912 -1457 -130 -266 -166 -341 -166 -350 0 -3 -14 -37 -31 -74 -34
-74 -41 -90 -59 -143 -14 -37 -32 -83 -56 -138 -8 -18 -14 -37 -14 -43 0 -5
-16 -50 -35 -99 -19 -49 -37 -98 -39 -107 -3 -20 -3 -19 -35 -114 -12 -37 -24
-78 -27 -93 -2 -15 -11 -44 -18 -64 -13 -36 -24 -73 -48 -162 -6 -25 -13 -49
-14 -55 -2 -5 -5 -20 -8 -32 -3 -13 -8 -32 -11 -43 -12 -49 -16 -67 -21 -90
-3 -14 -7 -33 -10 -42 -5 -18 -12 -47 -20 -88 -3 -14 -7 -33 -10 -42 -5 -16
-9 -35 -19 -88 -3 -14 -7 -36 -10 -50 -3 -14 -8 -38 -11 -55 -2 -16 -7 -43
-10 -60 -3 -16 -8 -42 -10 -57 -2 -16 -6 -41 -9 -58 -3 -16 -7 -43 -10 -60 -3
-16 -7 -42 -9 -57 -3 -16 -7 -41 -10 -58 -7 -44 -15 -103 -21 -160 -3 -27 -8
-68 -10 -90 -8 -71 -17 -160 -30 -310 -11 -136 -17 -317 -17 -580 0 -353 9
-553 37 -807 3 -27 7 -67 10 -90 2 -24 6 -61 9 -83 3 -22 8 -60 10 -85 8 -67
23 -171 32 -225 7 -42 14 -85 19 -120 16 -114 19 -131 29 -175 3 -14 8 -36 10
-50 7 -35 12 -59 24 -105 6 -22 13 -51 16 -65 5 -23 9 -42 21 -90 3 -11 7 -29
10 -40 3 -11 7 -29 10 -40 3 -11 7 -30 10 -42 2 -12 11 -42 20 -68 9 -26 18
-56 20 -68 3 -12 7 -32 10 -44 3 -13 9 -34 13 -48 5 -14 17 -50 26 -80 19 -67
129 -394 145 -433 6 -16 11 -32 11 -37 0 -5 6 -24 14 -42 8 -18 25 -58 37 -89
l22 -57 -67 -116 c-75 -130 -173 -333 -206 -426 -7 -19 -19 -48 -26 -65 -13
-31 -76 -222 -80 -240 -1 -5 -7 -30 -15 -55 -23 -81 -33 -124 -44 -180 -3 -14
-7 -36 -10 -50 -23 -109 -35 -197 -50 -370 -5 -57 -5 -471 0 -530 9 -105 17
-174 30 -250 3 -17 7 -42 9 -58 4 -28 13 -72 20 -107 2 -11 14 -58 26 -105 12
-47 23 -89 24 -95 12 -46 22 -82 48 -160 31 -90 39 -114 64 -172 8 -17 14 -34
14 -38 0 -3 10 -27 21 -53 152 -336 308 -585 535 -853 l81 -95 -261 -265
c-144 -145 -474 -480 -734 -744 -514 -521 -487 -487 -448 -562 20 -41 80 -89
118 -97 28 -6 51 16 486 457 251 254 583 590 738 746 l281 284 119 -100 c239
-201 506 -370 764 -483 52 -23 109 -48 125 -55 50 -22 243 -90 303 -106 17 -5
49 -14 70 -19 94 -26 130 -35 182 -45 14 -3 36 -7 50 -10 55 -12 195 -33 270
-41 269 -26 519 -26 755 0 22 3 69 8 105 11 36 3 72 8 80 10 8 2 29 7 45 10
17 2 41 7 55 10 14 3 36 7 50 10 14 3 36 7 50 10 14 3 36 8 50 11 14 3 43 10
65 16 22 6 45 12 50 14 9 2 245 82 290 99 21 7 27 9 115 45 81 33 275 132 374
190 47 28 91 48 97 44 14 -8 205 -75 444 -155 272 -90 351 -114 421 -125 21
-3 46 -10 54 -14 8 -4 18 -8 23 -8 4 0 20 -3 35 -6 15 -4 37 -9 50 -11 12 -3
31 -7 42 -10 11 -3 29 -7 41 -10 11 -2 28 -6 37 -9 9 -3 31 -8 47 -11 17 -2
40 -7 53 -10 51 -12 61 -14 93 -19 19 -3 45 -8 59 -11 14 -3 36 -7 50 -10 14
-2 39 -7 55 -9 17 -3 41 -8 55 -11 13 -2 40 -7 60 -10 20 -3 47 -8 60 -10 14
-3 43 -8 65 -11 73 -11 80 -12 120 -19 22 -3 54 -8 70 -10 17 -2 50 -7 75 -10
25 -3 77 -7 115 -10 107 -7 214 -15 280 -20 400 -33 938 -25 1345 19 118 13
138 16 177 21 24 3 62 8 85 11 24 2 59 7 78 10 19 3 49 7 65 9 17 2 41 6 55 9
14 3 41 8 60 10 19 3 46 8 60 11 14 3 37 7 53 10 15 3 39 7 55 10 15 3 38 7
52 10 14 3 41 8 60 11 19 3 43 7 52 10 10 3 28 7 40 10 13 2 34 6 48 9 14 4
36 8 50 11 14 3 68 16 120 30 52 14 109 27 125 30 17 3 38 10 48 15 9 5 17 7
17 4 0 -3 8 -1 18 4 11 6 32 13 48 16 69 14 78 16 86 21 4 3 16 7 25 9 21 4
499 163 528 175 11 4 63 25 115 45 52 21 109 43 125 50 17 7 71 29 120 50 50
21 119 51 155 67 36 16 101 46 145 66 169 77 414 203 515 265 467 285 900 590
1250 880 181 150 652 634 871 892 140 167 271 339 376 495 57 85 153 227 213
314 61 88 141 212 179 275 121 205 311 571 311 601 0 5 30 74 66 152 36 79 76
166 89 193 65 140 154 367 169 430 12 47 22 81 47 153 16 45 27 82 24 82 -2 0
3 19 11 43 9 23 18 53 20 66 3 14 8 29 11 34 3 5 10 25 14 43 5 19 13 49 18
67 8 27 63 244 77 300 2 9 6 26 9 37 9 36 15 64 20 95 3 17 8 38 11 48 3 10 7
30 9 45 3 15 7 38 10 52 3 14 7 36 10 50 3 14 7 36 10 50 9 45 22 119 30 176
3 21 8 50 10 64 2 14 7 59 10 100 8 104 14 169 20 210 3 19 8 53 11 75 3 22 8
51 10 65 15 75 22 988 9 1075 -4 28 -10 84 -12 125 -11 174 -18 249 -25 256
-9 9 -10 1 -8 -88 1 -37 -2 -73 -6 -79 -4 -7 -6 -43 -5 -81 1 -38 -2 -75 -8
-82 -6 -7 -13 -37 -16 -66 -5 -50 -13 -112 -20 -155 -1 -11 -6 -45 -10 -75 -4
-30 -8 -64 -10 -75 -2 -11 -6 -38 -9 -60 -3 -22 -8 -51 -11 -65 -2 -13 -7 -40
-10 -60 -3 -20 -8 -47 -10 -60 -3 -14 -7 -36 -10 -50 -2 -14 -7 -38 -9 -55 -3
-16 -8 -41 -11 -55 -4 -14 -9 -38 -12 -55 -2 -16 -13 -52 -23 -80 -17 -46 -26
-80 -36 -130 -2 -11 -6 -31 -9 -45 -3 -14 -8 -40 -11 -59 -3 -19 -10 -45 -15
-58 -5 -13 -7 -23 -4 -23 2 0 -1 -15 -6 -32 -5 -18 -12 -46 -14 -61 -3 -15
-17 -51 -30 -80 -14 -28 -27 -62 -30 -74 -4 -23 -119 -371 -134 -408 -5 -11
-15 -36 -21 -55 -17 -46 -39 -101 -51 -122 -5 -10 -9 -22 -9 -28 0 -8 -73
-182 -132 -314 -44 -99 -159 -324 -203 -396 -28 -47 -91 -157 -139 -244 -149
-270 -200 -348 -403 -619 -281 -375 -451 -586 -589 -733 -42 -45 -362 -347
-514 -485 -186 -169 -429 -354 -736 -559 -544 -363 -811 -511 -1234 -680 -182
-73 -299 -120 -325 -130 -11 -4 -38 -15 -60 -23 -22 -9 -51 -19 -65 -23 -14
-3 -38 -12 -55 -19 -30 -13 -354 -123 -387 -131 -10 -2 -27 -6 -38 -9 -11 -3
-29 -7 -40 -10 -48 -12 -67 -16 -90 -21 -14 -3 -52 -12 -85 -21 -33 -8 -68
-17 -78 -18 -9 -2 -20 -6 -25 -8 -4 -3 -23 -8 -42 -11 -19 -3 -46 -8 -60 -11
-14 -3 -36 -7 -50 -10 -14 -3 -36 -7 -50 -10 -14 -3 -37 -7 -52 -10 -16 -3
-43 -8 -60 -11 -18 -3 -44 -7 -58 -9 -14 -3 -36 -7 -50 -9 -38 -8 -128 -22
-210 -32 -25 -3 -58 -7 -75 -9 -139 -18 -246 -28 -431 -42 -128 -9 -812 -9
-929 0 -49 4 -119 10 -154 12 -36 3 -87 7 -115 10 -28 3 -73 7 -101 10 -27 3
-66 7 -85 10 -19 3 -55 7 -80 10 -49 5 -106 13 -130 18 -8 2 -28 6 -45 10 -36
8 -83 17 -110 22 -25 4 -72 13 -105 20 -14 3 -38 8 -55 10 -16 3 -37 8 -45 10
-8 2 -28 7 -45 10 -47 8 -75 14 -93 19 -9 3 -29 7 -45 10 -15 3 -35 7 -45 10
-9 3 -28 7 -42 10 -23 5 -61 13 -85 20 -5 1 -44 13 -85 25 -41 13 -79 24 -85
25 -42 8 -220 70 -233 81 -2 1 14 38 35 81 21 44 47 104 57 134 10 30 23 59
27 65 5 5 9 15 9 23 0 8 7 28 15 45 8 18 22 57 30 87 9 30 20 70 25 88 18 60
38 134 45 167 3 11 7 31 10 45 3 14 8 36 10 50 2 14 7 36 10 50 12 56 20 109
30 200 3 25 8 68 12 95 9 70 9 557 0 630 -4 33 -9 76 -12 95 -3 19 -7 53 -10
75 -3 22 -7 50 -9 61 -2 12 -7 37 -10 55 -3 19 -8 44 -11 56 -3 13 -7 32 -10
44 -2 11 -6 28 -9 37 -3 9 -7 28 -10 42 -3 14 -7 35 -10 47 -4 13 -8 32 -11
44 -2 11 -13 45 -24 75 -12 30 -19 54 -16 54 4 0 -29 102 -44 135 -6 11 -31
70 -56 132 -139 336 -345 664 -583 929 l-89 100 146 151 c80 83 466 474 856
869 747 757 1207 1222 1875 1898 800 811 1162 1177 1537 1556 209 212 402 408
428 435 26 28 221 226 433 440 212 215 564 570 782 790 217 221 566 574 775
785 209 212 711 720 1115 1130 404 410 900 912 1101 1115 637 644 814 827 811
839 -14 51 -50 102 -90 127 -78 50 -80 49 -261 -138 -90 -93 -332 -339 -539
-548 -463 -467 -958 -969 -1852 -1875 -710 -720 -1257 -1274 -1900 -1925 -386
-390 -820 -830 -1556 -1575 -230 -234 -584 -591 -785 -795 -201 -203 -538
-545 -750 -760 -480 -487 -1023 -1036 -1516 -1535 -209 -212 -474 -480 -588
-597 l-207 -212 -91 77 c-239 201 -574 404 -846 512 -101 40 -385 136 -426
144 -11 3 -49 12 -85 21 -132 32 -164 39 -255 50 -22 3 -58 7 -80 10 -138 20
-262 26 -485 28 -107 0 -215 -2 -240 -6 -67 -11 -111 -17 -155 -22 -54 -7
-132 -19 -189 -31 -11 -2 -34 -7 -51 -9 -16 -3 -38 -8 -47 -11 -9 -3 -26 -7
-37 -9 -12 -3 -30 -7 -41 -10 -11 -3 -29 -7 -40 -10 -47 -12 -58 -15 -110 -29
-30 -8 -86 -26 -125 -40 -174 -62 -172 -61 -323 -132 -51 -24 -96 -44 -100
-44 -8 0 -60 150 -68 195 -3 16 -9 36 -14 45 -5 10 -12 32 -15 50 -3 18 -10
41 -16 51 -5 11 -7 19 -4 19 3 0 -1 16 -9 35 -8 19 -13 35 -10 35 3 0 0 8 -5
18 -6 11 -12 30 -15 43 -2 13 -11 43 -20 67 -8 23 -13 42 -10 42 2 0 0 8 -5
18 -6 11 -12 30 -15 43 -10 47 -15 71 -20 87 -3 9 -7 28 -10 42 -3 14 -8 36
-11 50 -3 14 -7 36 -10 50 -3 14 -7 35 -10 48 -12 54 -21 99 -31 152 -12 68
-22 129 -29 174 -3 22 -8 53 -11 70 -3 17 -7 45 -10 61 -16 119 -22 167 -29
236 -2 25 -7 70 -10 100 -20 194 -30 405 -30 664 0 203 9 472 19 565 3 25 8
74 11 110 13 149 30 290 40 340 3 14 7 43 10 65 3 22 7 51 10 65 2 13 7 40 10
60 3 20 7 47 10 60 3 13 7 42 10 65 3 22 8 48 11 57 6 20 13 52 20 98 3 19 8
38 10 41 2 3 6 21 9 40 3 19 8 42 11 51 3 9 7 27 10 40 12 54 15 67 34 143 11
44 22 89 25 100 3 11 14 52 25 90 12 39 23 81 26 95 3 14 8 34 11 45 7 22 10
30 16 60 6 23 65 201 77 230 5 11 12 31 16 45 7 25 38 101 55 132 5 10 9 22 9
28 0 9 24 64 71 166 10 23 19 44 19 47 0 3 20 50 45 104 25 54 56 121 68 148
20 47 116 237 257 510 91 177 310 502 634 940 205 278 765 837 1146 1145 94
76 255 191 485 349 66 45 154 106 195 135 41 30 138 89 215 131 166 92 601
313 735 374 52 24 108 50 124 57 16 8 33 14 37 14 5 0 34 12 66 26 32 14 67
30 78 34 11 4 31 12 45 18 74 31 161 62 203 71 25 6 64 17 84 25 21 7 65 21
98 31 114 33 237 75 273 94 20 10 55 22 77 26 22 5 45 9 50 11 6 1 24 5 40 8
17 3 41 8 55 11 14 3 36 7 50 10 14 3 36 7 50 10 44 9 76 15 114 20 21 2 46 7
55 9 14 5 38 10 96 21 11 2 34 7 50 10 17 4 40 9 53 11 12 2 32 5 45 8 12 2
40 7 62 10 22 3 51 8 65 11 14 3 48 8 75 11 28 3 64 7 80 9 17 3 50 7 75 10
25 2 65 7 88 10 55 7 125 13 224 20 118 8 141 23 38 24 -47 1 -105 4 -130 7
-105 12 -534 26 -543 18z m-3972 -9509 c191 -15 188 -15 295 -30 19 -2 46 -7
60 -10 14 -3 36 -7 50 -10 28 -5 60 -12 90 -20 11 -3 29 -7 40 -10 11 -3 28
-7 38 -9 9 -2 29 -9 45 -15 15 -6 27 -9 27 -6 0 2 16 -3 35 -11 19 -8 35 -12
35 -10 0 5 111 -32 165 -54 17 -7 40 -16 53 -21 95 -38 139 -57 247 -111 226
-114 407 -228 585 -369 135 -107 403 -375 510 -509 160 -202 311 -448 414
-678 55 -122 165 -435 180 -512 8 -42 15 -71 20 -88 3 -9 8 -32 11 -51 3 -19
7 -37 9 -40 2 -3 7 -26 10 -51 3 -25 8 -56 11 -70 7 -31 19 -131 31 -245 6
-68 6 -426 -1 -495 -15 -153 -30 -266 -50 -360 -3 -14 -7 -36 -10 -50 -5 -27
-12 -57 -21 -92 -3 -13 -7 -33 -10 -46 -2 -13 -12 -44 -20 -69 -9 -25 -17 -53
-19 -62 -5 -29 -45 -145 -55 -163 -6 -10 -10 -23 -10 -29 0 -6 -7 -27 -16 -47
-9 -21 -19 -46 -24 -57 -4 -11 -24 -57 -45 -102 -36 -76 -40 -81 -59 -71 -12
6 -21 10 -21 9 0 -1 -13 2 -28 8 -16 6 -31 11 -35 11 -6 0 -65 22 -147 55 -16
7 -57 22 -90 34 -112 42 -296 125 -440 198 -373 189 -736 403 -960 566 -330
240 -508 383 -725 584 -488 450 -868 900 -1208 1428 -185 289 -433 756 -541
1020 -18 44 -37 89 -42 100 -31 71 -88 219 -86 222 8 7 237 110 322 144 33 13
214 71 217 69 2 -1 17 4 33 10 17 7 37 13 45 15 8 2 44 11 80 20 64 17 80 20
130 30 14 3 36 7 50 10 14 3 39 7 55 9 17 3 45 7 63 11 38 6 88 12 182 20 35
4 66 8 68 9 4 5 378 -2 457 -9z m-2922 -1740 c225 -504 462 -917 819 -1424
386 -547 1011 -1201 1542 -1613 334 -260 486 -367 781 -550 296 -184 826 -460
1045 -545 151 -59 154 -48 -43 -146 -94 -47 -212 -102 -262 -122 -105 -43
-285 -106 -285 -100 0 3 -12 0 -27 -6 -16 -6 -36 -13 -45 -15 -10 -2 -28 -6
-40 -10 -13 -3 -34 -7 -48 -10 -14 -3 -33 -7 -42 -10 -16 -5 -35 -9 -88 -19
-14 -3 -36 -7 -50 -10 -42 -9 -107 -16 -265 -30 -213 -19 -339 -21 -480 -11
-44 4 -111 9 -149 11 -38 3 -85 7 -105 10 -115 15 -123 16 -198 30 -50 9 -67
13 -183 43 -207 55 -234 63 -244 71 -6 5 -29 14 -51 20 -22 7 -49 16 -60 21
-11 5 -36 14 -55 22 -102 39 -432 215 -548 291 -442 293 -791 669 -1042 1123
-39 69 -70 128 -70 129 0 2 -19 46 -43 97 -24 51 -49 109 -56 128 -8 19 -20
49 -27 67 -8 17 -14 37 -14 45 0 8 -4 18 -9 24 -5 5 -19 43 -31 84 -11 41 -22
82 -25 90 -2 8 -16 58 -29 110 -23 86 -32 127 -42 185 -11 66 -14 83 -19 115
-37 236 -42 640 -10 860 3 19 7 51 10 70 3 19 7 46 10 60 3 14 7 39 10 55 4
27 7 42 20 100 6 29 21 90 30 123 13 49 26 99 30 116 7 29 36 117 50 151 11
28 36 91 55 140 47 123 196 415 205 403 1 -2 36 -79 78 -173z"/>
<path d="M20749 17410 c-41 -27 -110 -74 -153 -105 -43 -31 -91 -63 -105 -71
-33 -19 -107 -67 -268 -175 -70 -48 -153 -99 -183 -114 -30 -15 -79 -43 -107
-61 -90 -57 -314 -160 -443 -204 -70 -23 -226 -47 -280 -43 -87 7 -171 29
-276 73 -81 34 -205 105 -224 129 -9 11 -81 51 -92 51 -6 0 -40 22 -77 49 -36
27 -77 52 -90 56 -13 4 -55 39 -92 78 -38 39 -72 68 -75 64 -4 -3 25 -41 65
-83 39 -42 71 -83 71 -91 0 -9 22 -45 48 -82 27 -36 63 -93 82 -126 18 -33 50
-84 71 -114 41 -57 119 -248 139 -343 19 -84 7 -234 -25 -333 -75 -227 -206
-484 -384 -750 -37 -55 -102 -152 -144 -215 -42 -63 -98 -144 -124 -180 -156
-212 -164 -227 -134 -255 19 -17 22 -16 63 8 24 14 66 42 93 62 51 36 150 103
310 208 50 33 135 90 190 127 55 37 118 76 140 87 22 11 76 41 120 67 234 140
521 244 689 250 144 5 355 -72 522 -191 40 -28 86 -58 103 -67 27 -15 124 -99
189 -166 13 -14 44 -65 69 -114 24 -48 47 -86 50 -83 3 4 -22 62 -56 131 -33
69 -61 131 -61 138 0 8 -20 49 -45 92 -25 44 -45 83 -45 88 0 16 -42 91 -90
163 -26 39 -54 86 -62 105 -78 173 -103 279 -95 399 16 223 162 542 436 949
53 79 116 174 140 210 62 95 124 184 138 202 41 50 113 155 118 172 6 18 -18
58 -35 58 -4 0 -41 -22 -81 -50z"/>
</g>
</svg>
